:SAMPLES-PER-SECOND 30
:FULLY-SPECIFIED
:DEGREES
467
root  -23.2311 17.0728 -8.09193 52.7124 -36.8646 -20.1797
Spine  3.97557 15.3913 11.835
Spine1  1.74304 12.3192 12.3197
Neck  3.97569e-016 0 -2.38542e-015
Head  1.95555 -2.46861 52.7719
R_Clavicle  0.43039 -23.0085 1.15786
R_UpperArm  52.1824 -21.9635 69.2781
R_Forearm  27.2912 -2.77808 2.46645
R_Hand  -7.01523 9.056 -60.747
L_Clavicle  -1.03875 1.4987 7.90939
L_UpperArm  12.277 40.3657 90.2393
L_Forearm  25.8058 10.1124 0.447363
L_Hand  49.8025 -46.5052 -99.6535
L_Thigh  -9.03508 45.7634 28.722
L_Calf  -19.2852 -4.31177 32.4877
L_Foot  9.21682 14.2241 17.0098
L_Toe0  0.505156 0.0344457 -6.1361
R_Thigh  -5.71168 -58.2462 27.9616
R_Calf  3.00439 9.81533 53.6099
R_Foot  2.82675 -12.0684 -29.184
R_Toe0  -1.78853 -0.271095 -17.3236
468
root  -25.0251 17.1273 -7.33639 41.9917 -28.5259 -23.7661
Spine  2.84596 9.89925 13.4474
Spine1  2.60818 16.7074 15.061
Neck  3.97569e-016 0 -2.38542e-015
Head  0.502967 -5.60134 55.7037
R_Clavicle  0.470988 -28.8524 1.39737
R_UpperArm  44.8509 -15.7495 67.9726
R_Forearm  29.5377 -27.1626 23.3403
R_Hand  -7.06328 10.872 -57.3166
L_Clavicle  -0.636172 7.66062 5.6219
L_UpperArm  22.2024 38.0158 102.766
L_Forearm  21.8041 9.38505 -3.06706
L_Hand  49.5368 -47.5511 -97.7346
L_Thigh  -1.40887 49.0022 38.9125
L_Calf  -25.7761 -4.32987 32.6114
L_Foot  8.97439 13.4748 17.0928
L_Toe0  0.505156 0.0344457 -6.1361
R_Thigh  -8.72363 -58.3937 17.1569
R_Calf  10.8843 11.9363 48.9817
R_Foot  2.78021 -11.8365 -28.9315
R_Toe0  -1.78853 -0.271125 -17.3236
469
root  -26.5501 16.8219 -6.53275 30.0322 -22.4257 -27.0776
Spine  2.99264 5.22657 15.865
Spine1  4.42951 20.8592 16.3764
Neck  3.97569e-016 0 -2.38542e-015
Head  -2.9627 -8.22039 57.5586
R_Clavicle  0.462637 -34.5794 1.83054
R_UpperArm  41.7242 -15.5521 71.1374
R_Forearm  14.3529 -38.4282 27.256
R_Hand  -9.06483 21.5954 -53.7157
L_Clavicle  -0.479141 13.8656 4.43223
L_UpperArm  29.2662 35.383 110.788
L_Forearm  19.0372 8.27292 -6.41126
L_Hand  46.0826 -48.1918 -92.1689
L_Thigh  3.42222 48.7683 50.3742
L_Calf  -24.9592 -4.32146 32.5716
L_Foot  7.25277 9.70385 16.3378
L_Toe0  0.505156 0.0344457 -6.1361
R_Thigh  -5.06475 -56.8038 6.40224
R_Calf  15.5425 12.704 43.6802
R_Foot  2.94471 -8.82553 -29.2762
R_Toe0  -1.78853 -0.271156 -17.3236
470
root  -28.0039 16.1488 -5.65741 15.1997 -18.2176 -28.2565
Spine  3.36297 1.73121 17.1833
Spine1  5.77103 21.7389 17.1067
Neck  3.97569e-016 0 -2.38542e-015
Head  -4.26277 -11.4018 57.4044
R_Clavicle  0.327181 -37.7671 2.76061
R_UpperArm  31.0785 -30.618 82.1663
R_Forearm  -23.1575 -11.4693 -1.04105
R_Hand  -30.1024 49.6258 -74.636
L_Clavicle  -0.42604 18.1755 4.5295
L_UpperArm  33.6942 33.8561 115.546
L_Forearm  18.0947 6.87315 -8.68875
L_Hand  36.9553 -47.0731 -80.1036
L_Thigh  5.94089 45.8883 59.8843
L_Calf  -19.5968 -4.41918 33.4442
L_Foot  6.54123 7.94925 16.2257
L_Toe0  0.505156 0.0344457 -6.1361
R_Thigh  5.83112 -54.3337 1.43329
R_Calf  10.6819 10.8696 36.2163
R_Foot  2.84034 -4.76829 -27.5592
R_Toe0  -1.78853 -0.271187 -17.3236
471
root  -29.5672 15.3215 -4.60548 -3.25586 -12.266 -26.8831
Spine  3.23349 -0.537026 17.4874
Spine1  4.36784 13.3158 16.2975
Neck  3.97569e-016 0 -2.38542e-015
Head  -3.10734 -11.1739 55.9592
R_Clavicle  0.245178 -33.6754 3.70789
R_UpperArm  32.1229 -37.6299 77.5207
R_Forearm  -42.3202 -4.40947 -3.33287
R_Hand  -19.5628 49.6136 -56.0542
L_Clavicle  -0.39449 20.1311 4.71721
L_UpperArm  34.8056 32.2073 116.454
L_Forearm  14.3168 6.54135 -10.0524
L_Hand  28.6462 -43.832 -70.1871
L_Thigh  9.4304 42.4517 64.732
L_Calf  -15.8468 -4.69573 35.7677
L_Foot  6.60137 9.16542 14.8978
L_Toe0  0.505156 0.0344458 -6.1361
R_Thigh  10.8011 -53.7034 4.77529
R_Calf  1.57822 8.15378 26.0783
R_Foot  0.260995 -16.558 -20.4233
R_Toe0  -1.78853 -0.271218 -17.3236
472
root  -30.6798 14.4151 -2.91149 -22.3652 -2.28708 -26.0154
Spine  2.76523 -2.55452 19.1467
Spine1  1.64427 -2.73792 14.2561
Neck  3.97569e-016 0 -2.38542e-015
Head  -4.2619 -3.80696 53.4877
R_Clavicle  0.376529 -24.3885 4.38511
R_UpperArm  35.0512 -48.0207 66.197
R_Forearm  -51.2789 -3.57498 -1.52899
R_Hand  -21.7157 54.2469 -57.0148
L_Clavicle  -0.425763 19.7754 4.00123
L_UpperArm  32.1996 29.4427 113.801
L_Forearm  6.55031 7.05086 -11.2473
L_Hand  23.7294 -39.7297 -66.3195
L_Thigh  10.9545 39.2356 65.2403
L_Calf  -13.9468 -5.06168 39.2688
L_Foot  6.44177 10.9695 12.277
L_Toe0  0.505156 0.0344458 -6.1361
R_Thigh  12.6418 -55.0607 9.41342
R_Calf  -0.613121 6.16459 19.2777
R_Foot  -6.33359 -45.0624 -12.6039
R_Toe0  -1.78853 -0.27125 -17.3236
473
root  -30.3042 13.5967 -0.744479 -38.7178 9.6282 -26.1402
Spine  2.28734 -5.39719 21.228
Spine1  0.482263 -16.2142 13.307
Neck  3.97569e-016 0 -2.38542e-015
Head  -10.184 6.41772 49.1639
R_Clavicle  0.56284 -16.3332 4.71618
R_UpperArm  33.8675 -57.4251 59.7306
R_Forearm  -51.5362 -1.42474 -3.42533
R_Hand  -32.5134 61.2305 -68.9536
L_Clavicle  -0.459243 18.2519 2.86733
L_UpperArm  24.9052 27.4112 106.448
L_Forearm  0.776397 8.94049 -10.5966
L_Hand  18.3542 -35.6139 -60.3371
L_Thigh  9.69496 34.935 65.6707
L_Calf  -12.2642 -5.1817 43.0081
L_Foot  6.40303 12.3326 10.7018
L_Toe0  0.505156 0.0344458 -6.1361
R_Thigh  17.5132 -56.1448 7.32942
R_Calf  0.165444 6.09363 19.0945
R_Foot  -7.05858 -41.3696 -11.0367
R_Toe0  -1.78853 -0.271283 -17.3236
474
root  -28.9233 13.0931 0.919118 -51.9629 22.623 -24.8389
Spine  2.29128 -8.4827 19.9344
Spine1  0.690247 -22.8945 12.7432
Neck  3.97569e-016 0 -2.38542e-015
Head  -16.893 11.8955 44.2766
R_Clavicle  0.656601 -12.3327 4.74489
R_UpperArm  32.6686 -61.5129 55.7985
R_Forearm  -49.0414 -1.80953 -4.12035
R_Hand  -49.9267 64.5096 -89.3388
L_Clavicle  -0.458165 17.1935 2.63859
L_UpperArm  18.5097 24.4902 91.4988
L_Forearm  -2.15205 8.66155 -6.61576
L_Hand  9.44906 -32.5866 -38.0922
L_Thigh  11.333 30.7409 70.9033
L_Calf  -12.3255 -4.77042 45.9023
L_Foot  5.56426 11.4408 8.96961
L_Toe0  0.505156 0.0344458 -6.1361
R_Thigh  22.5585 -55.3631 4.66457
R_Calf  -10.8656 5.79125 18.1388
R_Foot  1.9244 -3.86729 -19.6465
R_Toe0  -1.78853 -0.271316 -17.3236
475
root  -27.3821 12.9468 1.9665 -63.6504 36.2992 -24.1632
Spine  2.30042 -10.985 16.6917
Spine1  0.815465 -26.1922 11.1225
Neck  3.97569e-016 0 -2.38542e-015
Head  -19.6894 11.6939 42.5596
R_Clavicle  0.684433 -10.9657 4.71169
R_UpperArm  37.8964 -62.0123 49.186
R_Forearm  -46.8633 -3.65279 -2.15664
R_Hand  -73.3639 63.5754 -117.105
L_Clavicle  -0.450428 16.4286 3.40981
L_UpperArm  19.6636 20.493 71.939
L_Forearm  -19.208 6.63644 8.84014
L_Hand  0.387921 -9.94303 -13.124
L_Thigh  13.8655 28.2559 77.8607
L_Calf  -13.5808 -4.3791 47.1585
L_Foot  4.17472 9.2348 6.68475
L_Toe0  0.505156 0.0344458 -6.1361
R_Thigh  27.4235 -51.2878 3.08253
R_Calf  -19.6369 5.63113 17.5799
R_Foot  3.7356 13.5488 -21.076
R_Toe0  -1.78853 -0.27135 -17.3236
476
root  -25.1481 13.1682 2.443 -74.1479 47.3918 -26.7514
Spine  1.1555 -10.4959 16.4224
Spine1  -0.504829 -28.3371 10.4557
Neck  3.97569e-016 0 -2.38542e-015
Head  -20.0028 10.2922 43.7773
R_Clavicle  0.731813 -8.96977 4.73193
R_UpperArm  45.5866 -63.5612 41.5974
R_Forearm  -41.0979 -4.47765 0.297462
R_Hand  -91.8431 53.8928 -143.852
L_Clavicle  -0.465084 13.5775 3.73851
L_UpperArm  -1.3932 23.1733 56.481
L_Forearm  -33.276 13.825 16.5319
L_Hand  0.271122 8.09023 0.244751
L_Thigh  13.1694 24.383 80.7356
L_Calf  -13.3718 -4.45285 45.6491
L_Foot  4.13631 8.89994 6.88397
L_Toe0  0.505156 0.0344458 -6.1361
R_Thigh  37.6534 -45.7991 -3.68911
R_Calf  -25.6558 6.04965 19.0109
R_Foot  3.73713 13.8315 -21.1453
R_Toe0  -1.78853 -0.271384 -17.3236
